<svg width="419" height="112" viewBox="0 0 419 112" fill="none" xmlns="http://www.w3.org/2000/svg">
<path d="M365.864 32V23.564H367.496V32H365.864ZM367.064 32V30.548H371.36V32H367.064ZM375.197 32.12C374.613 32.12 374.085 31.988 373.613 31.724C373.149 31.452 372.777 31.088 372.497 30.632C372.225 30.168 372.089 29.652 372.089 29.084C372.089 28.516 372.225 28.008 372.497 27.56C372.769 27.104 373.141 26.744 373.613 26.48C374.085 26.208 374.609 26.072 375.185 26.072C375.777 26.072 376.305 26.208 376.769 26.48C377.241 26.744 377.613 27.104 377.885 27.56C378.157 28.008 378.293 28.516 378.293 29.084C378.293 29.652 378.157 30.168 377.885 30.632C377.613 31.088 377.241 31.452 376.769 31.724C376.305 31.988 375.781 32.12 375.197 32.12ZM375.185 30.656C375.481 30.656 375.741 30.592 375.965 30.464C376.197 30.328 376.373 30.144 376.493 29.912C376.621 29.672 376.685 29.4 376.685 29.096C376.685 28.792 376.621 28.524 376.493 28.292C376.365 28.06 376.189 27.88 375.965 27.752C375.741 27.616 375.481 27.548 375.185 27.548C374.897 27.548 374.641 27.616 374.417 27.752C374.193 27.88 374.017 28.06 373.889 28.292C373.761 28.524 373.697 28.792 373.697 29.096C373.697 29.4 373.761 29.672 373.889 29.912C374.017 30.144 374.193 30.328 374.417 30.464C374.641 30.592 374.897 30.656 375.185 30.656ZM380.974 32L378.802 26.204H380.386L381.802 30.416L381.322 30.428L382.774 26.204H383.914L385.366 30.428L384.886 30.416L386.302 26.204H387.886L385.726 32H384.586L383.122 27.992H383.566L382.102 32H380.974ZM390.697 32L394.093 23.564H395.425L398.809 32H397.069L394.453 25.076H395.053L392.401 32H390.697ZM392.497 30.428V29.06H397.033V30.428H392.497ZM401.255 28.868V27.536H403.211C403.467 27.536 403.699 27.484 403.907 27.38C404.115 27.276 404.279 27.128 404.399 26.936C404.519 26.736 404.579 26.496 404.579 26.216C404.579 25.944 404.519 25.708 404.399 25.508C404.279 25.308 404.115 25.156 403.907 25.052C403.699 24.948 403.467 24.896 403.211 24.896H401.255V23.564H403.379C403.915 23.564 404.395 23.672 404.819 23.888C405.251 24.104 405.591 24.412 405.839 24.812C406.087 25.204 406.211 25.672 406.211 26.216C406.211 26.76 406.087 27.232 405.839 27.632C405.591 28.024 405.251 28.328 404.819 28.544C404.395 28.76 403.915 28.868 403.379 28.868H401.255ZM400.055 32V23.564H401.687V32H400.055ZM408.818 28.472V27.2H410.774C411.174 27.2 411.482 27.1 411.698 26.9C411.922 26.692 412.034 26.408 412.034 26.048C412.034 25.72 411.922 25.448 411.698 25.232C411.482 25.008 411.174 24.896 410.774 24.896H408.818V23.564H410.918C411.462 23.564 411.938 23.672 412.346 23.888C412.762 24.096 413.082 24.384 413.306 24.752C413.538 25.12 413.654 25.544 413.654 26.024C413.654 26.52 413.538 26.952 413.306 27.32C413.082 27.68 412.762 27.964 412.346 28.172C411.93 28.372 411.446 28.472 410.894 28.472H408.818ZM407.618 32V23.564H409.25V32H407.618ZM412.226 32L409.442 28.352L410.942 27.884L414.206 32H412.226Z" fill="black"/>
<path d="M64.984 108V99.672H65.776L66.112 100.98V108H64.984ZM70.744 108L65.632 101.172L65.776 99.672L70.9 106.488L70.744 108ZM70.744 108L70.408 106.764V99.672H71.536V108H70.744ZM75.9855 108.12C75.4655 108.12 74.9935 107.992 74.5695 107.736C74.1455 107.472 73.8095 107.116 73.5615 106.668C73.3215 106.22 73.2015 105.716 73.2015 105.156C73.2015 104.596 73.3215 104.092 73.5615 103.644C73.8095 103.196 74.1415 102.84 74.5575 102.576C74.9815 102.312 75.4575 102.18 75.9855 102.18C76.4175 102.18 76.8015 102.272 77.1375 102.456C77.4815 102.632 77.7575 102.88 77.9655 103.2C78.1735 103.512 78.2895 103.876 78.3135 104.292V106.008C78.2895 106.416 78.1735 106.78 77.9655 107.1C77.7655 107.42 77.4935 107.672 77.1495 107.856C76.8135 108.032 76.4255 108.12 75.9855 108.12ZM76.1655 107.1C76.7015 107.1 77.1335 106.92 77.4615 106.56C77.7895 106.192 77.9535 105.724 77.9535 105.156C77.9535 104.764 77.8775 104.424 77.7255 104.136C77.5815 103.84 77.3735 103.612 77.1015 103.452C76.8295 103.284 76.5135 103.2 76.1535 103.2C75.7935 103.2 75.4735 103.284 75.1935 103.452C74.9215 103.62 74.7055 103.852 74.5455 104.148C74.3935 104.436 74.3175 104.768 74.3175 105.144C74.3175 105.528 74.3935 105.868 74.5455 106.164C74.7055 106.452 74.9255 106.68 75.2055 106.848C75.4855 107.016 75.8055 107.1 76.1655 107.1ZM77.8815 108V106.464L78.0855 105.072L77.8815 103.692V102.3H78.9735V108H77.8815ZM80.7959 108V102.3H81.8759V108H80.7959ZM81.8759 104.748L81.4679 104.568C81.4679 103.84 81.6359 103.26 81.9719 102.828C82.3079 102.396 82.7919 102.18 83.4239 102.18C83.7119 102.18 83.9719 102.232 84.2039 102.336C84.4359 102.432 84.6519 102.596 84.8519 102.828L84.1439 103.56C84.0239 103.432 83.8919 103.34 83.7479 103.284C83.6039 103.228 83.4359 103.2 83.2439 103.2C82.8439 103.2 82.5159 103.328 82.2599 103.584C82.0039 103.84 81.8759 104.228 81.8759 104.748ZM85.8857 108V102.3H86.9658V108H85.8857ZM86.9658 104.748L86.5578 104.568C86.5578 103.84 86.7258 103.26 87.0618 102.828C87.3978 102.396 87.8818 102.18 88.5138 102.18C88.8018 102.18 89.0618 102.232 89.2938 102.336C89.5258 102.432 89.7418 102.596 89.9418 102.828L89.2338 103.56C89.1138 103.432 88.9818 103.34 88.8378 103.284C88.6938 103.228 88.5258 103.2 88.3338 103.2C87.9338 103.2 87.6058 103.328 87.3498 103.584C87.0938 103.84 86.9658 104.228 86.9658 104.748ZM93.3687 108.12C92.8087 108.12 92.3047 107.988 91.8567 107.724C91.4087 107.46 91.0527 107.104 90.7887 106.656C90.5247 106.2 90.3927 105.692 90.3927 105.132C90.3927 104.58 90.5247 104.084 90.7887 103.644C91.0527 103.196 91.4087 102.84 91.8567 102.576C92.3047 102.312 92.8087 102.18 93.3687 102.18C93.9207 102.18 94.4207 102.312 94.8687 102.576C95.3247 102.832 95.6847 103.184 95.9487 103.632C96.2127 104.08 96.3447 104.58 96.3447 105.132C96.3447 105.692 96.2127 106.2 95.9487 106.656C95.6847 107.104 95.3247 107.46 94.8687 107.724C94.4207 107.988 93.9207 108.12 93.3687 108.12ZM93.3687 107.076C93.7287 107.076 94.0487 106.992 94.3287 106.824C94.6087 106.656 94.8287 106.428 94.9887 106.14C95.1487 105.844 95.2287 105.508 95.2287 105.132C95.2287 104.764 95.1447 104.436 94.9767 104.148C94.8167 103.86 94.5967 103.636 94.3167 103.476C94.0447 103.308 93.7287 103.224 93.3687 103.224C93.0087 103.224 92.6887 103.308 92.4087 103.476C92.1287 103.636 91.9087 103.86 91.7487 104.148C91.5887 104.436 91.5087 104.764 91.5087 105.132C91.5087 105.508 91.5887 105.844 91.7487 106.14C91.9087 106.428 92.1287 106.656 92.4087 106.824C92.6887 106.992 93.0087 107.076 93.3687 107.076ZM99.2795 108L97.0235 102.3H98.1515L99.7835 106.74H99.4235L101.043 102.3H101.667L103.287 106.74H102.927L104.559 102.3H105.687L103.443 108H102.807L101.163 103.692H101.559L99.9035 108H99.2795Z" fill="black"/>
<path d="M3.064 88.472V87.2H5.02C5.42 87.2 5.728 87.1 5.944 86.9C6.168 86.692 6.28 86.408 6.28 86.048C6.28 85.72 6.168 85.448 5.944 85.232C5.728 85.008 5.42 84.896 5.02 84.896H3.064V83.564H5.164C5.708 83.564 6.184 83.672 6.592 83.888C7.008 84.096 7.328 84.384 7.552 84.752C7.784 85.12 7.9 85.544 7.9 86.024C7.9 86.52 7.784 86.952 7.552 87.32C7.328 87.68 7.008 87.964 6.592 88.172C6.176 88.372 5.692 88.472 5.14 88.472H3.064ZM1.864 92V83.564H3.496V92H1.864ZM6.472 92L3.688 88.352L5.188 87.884L8.452 92H6.472ZM11.7177 92.12C11.1897 92.12 10.7137 91.988 10.2897 91.724C9.86566 91.46 9.53366 91.1 9.29366 90.644C9.05366 90.188 8.93366 89.676 8.93366 89.108C8.93366 88.532 9.05366 88.016 9.29366 87.56C9.53366 87.104 9.86566 86.744 10.2897 86.48C10.7137 86.216 11.1897 86.084 11.7177 86.084C12.1337 86.084 12.5057 86.168 12.8337 86.336C13.1617 86.504 13.4217 86.74 13.6137 87.044C13.8137 87.34 13.9217 87.676 13.9377 88.052V90.14C13.9217 90.524 13.8137 90.864 13.6137 91.16C13.4217 91.456 13.1617 91.692 12.8337 91.868C12.5057 92.036 12.1337 92.12 11.7177 92.12ZM12.0057 90.668C12.4457 90.668 12.8017 90.524 13.0737 90.236C13.3457 89.94 13.4817 89.56 13.4817 89.096C13.4817 88.792 13.4177 88.524 13.2897 88.292C13.1697 88.052 12.9977 87.868 12.7737 87.74C12.5577 87.604 12.3017 87.536 12.0057 87.536C11.7177 87.536 11.4617 87.604 11.2377 87.74C11.0217 87.868 10.8497 88.052 10.7217 88.292C10.6017 88.524 10.5417 88.792 10.5417 89.096C10.5417 89.408 10.6017 89.684 10.7217 89.924C10.8497 90.156 11.0217 90.34 11.2377 90.476C11.4617 90.604 11.7177 90.668 12.0057 90.668ZM13.3977 92V90.44L13.6497 89.024L13.3977 87.632V86.204H14.9577V92H13.3977ZM20.4983 92V88.676C20.4983 88.332 20.3903 88.052 20.1743 87.836C19.9583 87.62 19.6783 87.512 19.3343 87.512C19.1103 87.512 18.9103 87.56 18.7343 87.656C18.5583 87.752 18.4183 87.888 18.3143 88.064C18.2183 88.24 18.1703 88.444 18.1703 88.676L17.5583 88.364C17.5583 87.908 17.6543 87.512 17.8463 87.176C18.0463 86.832 18.3183 86.564 18.6623 86.372C19.0143 86.18 19.4103 86.084 19.8503 86.084C20.2743 86.084 20.6543 86.192 20.9903 86.408C21.3263 86.616 21.5903 86.892 21.7823 87.236C21.9743 87.572 22.0703 87.936 22.0703 88.328V92H20.4983ZM16.5983 92V86.204H18.1703V92H16.5983ZM26.0106 94.568C25.3946 94.568 24.8506 94.456 24.3786 94.232C23.9066 94.016 23.5306 93.708 23.2506 93.308L24.2466 92.312C24.4706 92.576 24.7186 92.776 24.9906 92.912C25.2706 93.056 25.6066 93.128 25.9986 93.128C26.4866 93.128 26.8706 93.004 27.1506 92.756C27.4386 92.508 27.5826 92.164 27.5826 91.724V90.272L27.8466 89L27.5946 87.728V86.204H29.1546V91.7C29.1546 92.276 29.0186 92.776 28.7466 93.2C28.4826 93.632 28.1146 93.968 27.6426 94.208C27.1706 94.448 26.6266 94.568 26.0106 94.568ZM25.9386 91.844C25.4186 91.844 24.9506 91.72 24.5346 91.472C24.1186 91.216 23.7906 90.868 23.5506 90.428C23.3186 89.988 23.2026 89.496 23.2026 88.952C23.2026 88.408 23.3186 87.92 23.5506 87.488C23.7906 87.056 24.1186 86.716 24.5346 86.468C24.9506 86.212 25.4186 86.084 25.9386 86.084C26.3706 86.084 26.7506 86.168 27.0786 86.336C27.4146 86.504 27.6786 86.736 27.8706 87.032C28.0626 87.32 28.1666 87.66 28.1826 88.052V89.876C28.1666 90.26 28.0586 90.604 27.8586 90.908C27.6666 91.204 27.4026 91.436 27.0666 91.604C26.7386 91.764 26.3626 91.844 25.9386 91.844ZM26.2506 90.416C26.5386 90.416 26.7866 90.356 26.9946 90.236C27.2106 90.108 27.3786 89.936 27.4986 89.72C27.6186 89.496 27.6786 89.244 27.6786 88.964C27.6786 88.676 27.6186 88.424 27.4986 88.208C27.3786 87.992 27.2106 87.824 26.9946 87.704C26.7866 87.576 26.5386 87.512 26.2506 87.512C25.9626 87.512 25.7106 87.576 25.4946 87.704C25.2786 87.824 25.1106 87.996 24.9906 88.22C24.8706 88.436 24.8106 88.684 24.8106 88.964C24.8106 89.236 24.8706 89.484 24.9906 89.708C25.1106 89.924 25.2786 90.096 25.4946 90.224C25.7106 90.352 25.9626 90.416 26.2506 90.416ZM33.5578 92.12C32.9498 92.12 32.4098 91.992 31.9378 91.736C31.4658 91.472 31.0898 91.112 30.8098 90.656C30.5378 90.2 30.4018 89.68 30.4018 89.096C30.4018 88.52 30.5338 88.008 30.7978 87.56C31.0698 87.104 31.4378 86.744 31.9018 86.48C32.3658 86.208 32.8818 86.072 33.4498 86.072C34.0098 86.072 34.5018 86.2 34.9258 86.456C35.3578 86.704 35.6938 87.048 35.9338 87.488C36.1818 87.92 36.3058 88.412 36.3058 88.964C36.3058 89.068 36.2978 89.176 36.2818 89.288C36.2738 89.392 36.2538 89.512 36.2218 89.648L31.3498 89.66V88.484L35.4898 88.472L34.8538 88.964C34.8378 88.62 34.7738 88.332 34.6618 88.1C34.5578 87.868 34.4018 87.692 34.1938 87.572C33.9938 87.444 33.7458 87.38 33.4498 87.38C33.1378 87.38 32.8658 87.452 32.6338 87.596C32.4018 87.732 32.2218 87.928 32.0938 88.184C31.9738 88.432 31.9138 88.728 31.9138 89.072C31.9138 89.424 31.9778 89.732 32.1058 89.996C32.2418 90.252 32.4338 90.452 32.6818 90.596C32.9298 90.732 33.2178 90.8 33.5458 90.8C33.8418 90.8 34.1098 90.752 34.3498 90.656C34.5898 90.552 34.7978 90.4 34.9738 90.2L35.8978 91.124C35.6178 91.452 35.2738 91.7 34.8658 91.868C34.4658 92.036 34.0298 92.12 33.5578 92.12ZM41.1058 92.12C40.8178 92.12 40.5818 92.024 40.3978 91.832C40.2138 91.64 40.1218 91.408 40.1218 91.136C40.1218 90.848 40.2138 90.608 40.3978 90.416C40.5818 90.224 40.8178 90.128 41.1058 90.128C41.3938 90.128 41.6298 90.224 41.8138 90.416C41.9978 90.608 42.0898 90.848 42.0898 91.136C42.0898 91.408 41.9978 91.64 41.8138 91.832C41.6298 92.024 41.3938 92.12 41.1058 92.12ZM41.1058 88.496C40.8178 88.496 40.5818 88.4 40.3978 88.208C40.2138 88.016 40.1218 87.78 40.1218 87.5C40.1218 87.212 40.2138 86.976 40.3978 86.792C40.5818 86.6 40.8178 86.504 41.1058 86.504C41.3938 86.504 41.6298 86.6 41.8138 86.792C41.9978 86.976 42.0898 87.212 42.0898 87.5C42.0898 87.78 41.9978 88.016 41.8138 88.208C41.6298 88.4 41.3938 88.496 41.1058 88.496Z" fill="black"/>
<path d="M210.74 104.376V103.428H212.996C213.484 103.428 213.86 103.304 214.124 103.056C214.388 102.808 214.52 102.472 214.52 102.048C214.52 101.648 214.388 101.316 214.124 101.052C213.868 100.788 213.496 100.656 213.008 100.656H210.74V99.672H213.044C213.572 99.672 214.032 99.776 214.424 99.984C214.816 100.184 215.116 100.46 215.324 100.812C215.54 101.164 215.648 101.568 215.648 102.024C215.648 102.496 215.54 102.908 215.324 103.26C215.116 103.612 214.816 103.888 214.424 104.088C214.032 104.28 213.572 104.376 213.044 104.376H210.74ZM209.984 108V99.672H211.112V108H209.984ZM214.784 108L211.76 104.268L212.828 103.896L216.212 108H214.784ZM219.889 108.12C219.321 108.12 218.809 107.992 218.353 107.736C217.897 107.472 217.537 107.116 217.273 106.668C217.009 106.22 216.877 105.712 216.877 105.144C216.877 104.584 217.005 104.08 217.261 103.632C217.525 103.184 217.877 102.832 218.317 102.576C218.765 102.312 219.265 102.18 219.817 102.18C220.345 102.18 220.809 102.3 221.209 102.54C221.617 102.78 221.933 103.112 222.157 103.536C222.389 103.96 222.505 104.44 222.505 104.976C222.505 105.056 222.501 105.144 222.493 105.24C222.485 105.328 222.469 105.432 222.445 105.552H217.633V104.652H221.869L221.473 105C221.473 104.616 221.405 104.292 221.269 104.028C221.133 103.756 220.941 103.548 220.693 103.404C220.445 103.252 220.145 103.176 219.793 103.176C219.425 103.176 219.101 103.256 218.821 103.416C218.541 103.576 218.325 103.8 218.173 104.088C218.021 104.376 217.945 104.716 217.945 105.108C217.945 105.508 218.025 105.86 218.185 106.164C218.345 106.46 218.573 106.692 218.869 106.86C219.165 107.02 219.505 107.1 219.889 107.1C220.209 107.1 220.501 107.044 220.765 106.932C221.037 106.82 221.269 106.652 221.461 106.428L222.157 107.136C221.885 107.456 221.549 107.7 221.149 107.868C220.757 108.036 220.337 108.12 219.889 108.12ZM226.297 110.508C225.713 110.508 225.193 110.4 224.737 110.184C224.289 109.968 223.929 109.664 223.657 109.272L224.353 108.564C224.585 108.86 224.861 109.084 225.181 109.236C225.501 109.396 225.881 109.476 226.321 109.476C226.905 109.476 227.365 109.32 227.701 109.008C228.045 108.704 228.217 108.292 228.217 107.772V106.356L228.409 105.072L228.217 103.8V102.3H229.297V107.772C229.297 108.316 229.169 108.792 228.913 109.2C228.665 109.608 228.313 109.928 227.857 110.16C227.409 110.392 226.889 110.508 226.297 110.508ZM226.297 107.904C225.777 107.904 225.309 107.78 224.893 107.532C224.485 107.284 224.161 106.944 223.921 106.512C223.681 106.072 223.561 105.58 223.561 105.036C223.561 104.492 223.681 104.008 223.921 103.584C224.161 103.152 224.485 102.812 224.893 102.564C225.309 102.308 225.777 102.18 226.297 102.18C226.745 102.18 227.141 102.268 227.485 102.444C227.829 102.62 228.101 102.868 228.301 103.188C228.509 103.5 228.621 103.868 228.637 104.292V105.804C228.613 106.22 228.497 106.588 228.289 106.908C228.089 107.22 227.817 107.464 227.473 107.64C227.129 107.816 226.737 107.904 226.297 107.904ZM226.513 106.884C226.865 106.884 227.173 106.808 227.437 106.656C227.709 106.504 227.917 106.292 228.061 106.02C228.205 105.74 228.277 105.416 228.277 105.048C228.277 104.68 228.201 104.36 228.049 104.088C227.905 103.808 227.701 103.592 227.437 103.44C227.173 103.28 226.861 103.2 226.501 103.2C226.141 103.2 225.825 103.28 225.553 103.44C225.281 103.592 225.065 103.808 224.905 104.088C224.753 104.36 224.677 104.676 224.677 105.036C224.677 105.396 224.753 105.716 224.905 105.996C225.065 106.276 225.281 106.496 225.553 106.656C225.833 106.808 226.153 106.884 226.513 106.884ZM233.436 108.12C232.964 108.12 232.54 108.016 232.164 107.808C231.796 107.592 231.508 107.296 231.3 106.92C231.092 106.544 230.988 106.108 230.988 105.612V102.3H232.068V105.564C232.068 105.876 232.12 106.148 232.224 106.38C232.336 106.604 232.496 106.776 232.704 106.896C232.912 107.016 233.156 107.076 233.436 107.076C233.86 107.076 234.192 106.944 234.432 106.68C234.672 106.408 234.792 106.036 234.792 105.564V102.3H235.872V105.612C235.872 106.108 235.768 106.544 235.56 106.92C235.352 107.296 235.064 107.592 234.696 107.808C234.336 108.016 233.916 108.12 233.436 108.12ZM237.569 108V99.432H238.649V108H237.569ZM242.904 108.12C242.384 108.12 241.912 107.992 241.488 107.736C241.064 107.472 240.728 107.116 240.479 106.668C240.24 106.22 240.12 105.716 240.12 105.156C240.12 104.596 240.24 104.092 240.479 103.644C240.728 103.196 241.06 102.84 241.476 102.576C241.9 102.312 242.376 102.18 242.904 102.18C243.336 102.18 243.72 102.272 244.056 102.456C244.4 102.632 244.676 102.88 244.884 103.2C245.092 103.512 245.208 103.876 245.232 104.292V106.008C245.208 106.416 245.092 106.78 244.884 107.1C244.684 107.42 244.412 107.672 244.068 107.856C243.732 108.032 243.344 108.12 242.904 108.12ZM243.084 107.1C243.62 107.1 244.052 106.92 244.38 106.56C244.708 106.192 244.872 105.724 244.872 105.156C244.872 104.764 244.796 104.424 244.644 104.136C244.5 103.84 244.292 103.612 244.02 103.452C243.748 103.284 243.432 103.2 243.072 103.2C242.712 103.2 242.392 103.284 242.112 103.452C241.84 103.62 241.624 103.852 241.464 104.148C241.312 104.436 241.236 104.768 241.236 105.144C241.236 105.528 241.312 105.868 241.464 106.164C241.624 106.452 241.844 106.68 242.124 106.848C242.404 107.016 242.724 107.1 243.084 107.1ZM244.8 108V106.464L245.004 105.072L244.8 103.692V102.3H245.892V108H244.8ZM247.714 108V102.3H248.794V108H247.714ZM248.794 104.748L248.386 104.568C248.386 103.84 248.554 103.26 248.89 102.828C249.226 102.396 249.71 102.18 250.342 102.18C250.63 102.18 250.89 102.232 251.122 102.336C251.354 102.432 251.57 102.596 251.77 102.828L251.062 103.56C250.942 103.432 250.81 103.34 250.666 103.284C250.522 103.228 250.354 103.2 250.162 103.2C249.762 103.2 249.434 103.328 249.178 103.584C248.922 103.84 248.794 104.228 248.794 104.748Z" fill="black"/>
<path d="M64.864 52V43.564H66.496V52H64.864ZM70.156 52V43.564H71.788V52H70.156ZM65.896 48.364V46.924H70.612V48.364H65.896ZM73.5944 52V46.204H75.1784V52H73.5944ZM74.3864 45.268C74.1304 45.268 73.9184 45.184 73.7504 45.016C73.5824 44.84 73.4984 44.624 73.4984 44.368C73.4984 44.12 73.5824 43.908 73.7504 43.732C73.9184 43.556 74.1304 43.468 74.3864 43.468C74.6504 43.468 74.8624 43.556 75.0224 43.732C75.1904 43.908 75.2744 44.12 75.2744 44.368C75.2744 44.624 75.1904 44.84 75.0224 45.016C74.8624 45.184 74.6504 45.268 74.3864 45.268ZM79.245 54.568C78.629 54.568 78.085 54.456 77.613 54.232C77.141 54.016 76.765 53.708 76.485 53.308L77.481 52.312C77.705 52.576 77.953 52.776 78.225 52.912C78.505 53.056 78.841 53.128 79.233 53.128C79.721 53.128 80.105 53.004 80.385 52.756C80.673 52.508 80.817 52.164 80.817 51.724V50.272L81.081 49L80.829 47.728V46.204H82.389V51.7C82.389 52.276 82.253 52.776 81.981 53.2C81.717 53.632 81.349 53.968 80.877 54.208C80.405 54.448 79.861 54.568 79.245 54.568ZM79.173 51.844C78.653 51.844 78.185 51.72 77.769 51.472C77.353 51.216 77.025 50.868 76.785 50.428C76.553 49.988 76.437 49.496 76.437 48.952C76.437 48.408 76.553 47.92 76.785 47.488C77.025 47.056 77.353 46.716 77.769 46.468C78.185 46.212 78.653 46.084 79.173 46.084C79.605 46.084 79.985 46.168 80.313 46.336C80.649 46.504 80.913 46.736 81.105 47.032C81.297 47.32 81.401 47.66 81.417 48.052V49.876C81.401 50.26 81.293 50.604 81.093 50.908C80.901 51.204 80.637 51.436 80.301 51.604C79.973 51.764 79.597 51.844 79.173 51.844ZM79.485 50.416C79.773 50.416 80.021 50.356 80.229 50.236C80.445 50.108 80.613 49.936 80.733 49.72C80.853 49.496 80.913 49.244 80.913 48.964C80.913 48.676 80.853 48.424 80.733 48.208C80.613 47.992 80.445 47.824 80.229 47.704C80.021 47.576 79.773 47.512 79.485 47.512C79.197 47.512 78.945 47.576 78.729 47.704C78.513 47.824 78.345 47.996 78.225 48.22C78.105 48.436 78.045 48.684 78.045 48.964C78.045 49.236 78.105 49.484 78.225 49.708C78.345 49.924 78.513 50.096 78.729 50.224C78.945 50.352 79.197 50.416 79.485 50.416ZM87.9202 52V48.676C87.9202 48.332 87.8122 48.052 87.5962 47.836C87.3802 47.62 87.1002 47.512 86.7562 47.512C86.5322 47.512 86.3322 47.56 86.1562 47.656C85.9802 47.752 85.8402 47.888 85.7362 48.064C85.6402 48.24 85.5922 48.444 85.5922 48.676L84.9802 48.364C84.9802 47.908 85.0762 47.512 85.2682 47.176C85.4602 46.832 85.7242 46.564 86.0602 46.372C86.4042 46.18 86.7962 46.084 87.2362 46.084C87.6762 46.084 88.0642 46.18 88.4002 46.372C88.7442 46.564 89.0122 46.828 89.2042 47.164C89.3962 47.5 89.4922 47.888 89.4922 48.328V52H87.9202ZM84.0202 52V43.324H85.5922V52H84.0202ZM92.8064 52L96.2024 43.564H97.5344L100.918 52H99.1784L96.5624 45.076H97.1624L94.5104 52H92.8064ZM94.6064 50.428V49.06H99.1424V50.428H94.6064ZM103.365 48.868V47.536H105.321C105.577 47.536 105.809 47.484 106.017 47.38C106.225 47.276 106.389 47.128 106.509 46.936C106.629 46.736 106.689 46.496 106.689 46.216C106.689 45.944 106.629 45.708 106.509 45.508C106.389 45.308 106.225 45.156 106.017 45.052C105.809 44.948 105.577 44.896 105.321 44.896H103.365V43.564H105.489C106.025 43.564 106.505 43.672 106.929 43.888C107.361 44.104 107.701 44.412 107.949 44.812C108.197 45.204 108.321 45.672 108.321 46.216C108.321 46.76 108.197 47.232 107.949 47.632C107.701 48.024 107.361 48.328 106.929 48.544C106.505 48.76 106.025 48.868 105.489 48.868H103.365ZM102.165 52V43.564H103.797V52H102.165ZM110.927 48.472V47.2H112.883C113.283 47.2 113.591 47.1 113.807 46.9C114.031 46.692 114.143 46.408 114.143 46.048C114.143 45.72 114.031 45.448 113.807 45.232C113.591 45.008 113.283 44.896 112.883 44.896H110.927V43.564H113.027C113.571 43.564 114.047 43.672 114.455 43.888C114.871 44.096 115.191 44.384 115.415 44.752C115.647 45.12 115.763 45.544 115.763 46.024C115.763 46.52 115.647 46.952 115.415 47.32C115.191 47.68 114.871 47.964 114.455 48.172C114.039 48.372 113.555 48.472 113.003 48.472H110.927ZM109.727 52V43.564H111.359V52H109.727ZM114.335 52L111.551 48.352L113.051 47.884L116.315 52H114.335Z" fill="black"/>
<path d="M64.864 32V23.564H66.496V32H64.864ZM70.156 32V23.564H71.788V32H70.156ZM65.896 28.364V26.924H70.612V28.364H65.896ZM73.5944 32V26.204H75.1784V32H73.5944ZM74.3864 25.268C74.1304 25.268 73.9184 25.184 73.7504 25.016C73.5824 24.84 73.4984 24.624 73.4984 24.368C73.4984 24.12 73.5824 23.908 73.7504 23.732C73.9184 23.556 74.1304 23.468 74.3864 23.468C74.6504 23.468 74.8624 23.556 75.0224 23.732C75.1904 23.908 75.2744 24.12 75.2744 24.368C75.2744 24.624 75.1904 24.84 75.0224 25.016C74.8624 25.184 74.6504 25.268 74.3864 25.268ZM79.245 34.568C78.629 34.568 78.085 34.456 77.613 34.232C77.141 34.016 76.765 33.708 76.485 33.308L77.481 32.312C77.705 32.576 77.953 32.776 78.225 32.912C78.505 33.056 78.841 33.128 79.233 33.128C79.721 33.128 80.105 33.004 80.385 32.756C80.673 32.508 80.817 32.164 80.817 31.724V30.272L81.081 29L80.829 27.728V26.204H82.389V31.7C82.389 32.276 82.253 32.776 81.981 33.2C81.717 33.632 81.349 33.968 80.877 34.208C80.405 34.448 79.861 34.568 79.245 34.568ZM79.173 31.844C78.653 31.844 78.185 31.72 77.769 31.472C77.353 31.216 77.025 30.868 76.785 30.428C76.553 29.988 76.437 29.496 76.437 28.952C76.437 28.408 76.553 27.92 76.785 27.488C77.025 27.056 77.353 26.716 77.769 26.468C78.185 26.212 78.653 26.084 79.173 26.084C79.605 26.084 79.985 26.168 80.313 26.336C80.649 26.504 80.913 26.736 81.105 27.032C81.297 27.32 81.401 27.66 81.417 28.052V29.876C81.401 30.26 81.293 30.604 81.093 30.908C80.901 31.204 80.637 31.436 80.301 31.604C79.973 31.764 79.597 31.844 79.173 31.844ZM79.485 30.416C79.773 30.416 80.021 30.356 80.229 30.236C80.445 30.108 80.613 29.936 80.733 29.72C80.853 29.496 80.913 29.244 80.913 28.964C80.913 28.676 80.853 28.424 80.733 28.208C80.613 27.992 80.445 27.824 80.229 27.704C80.021 27.576 79.773 27.512 79.485 27.512C79.197 27.512 78.945 27.576 78.729 27.704C78.513 27.824 78.345 27.996 78.225 28.22C78.105 28.436 78.045 28.684 78.045 28.964C78.045 29.236 78.105 29.484 78.225 29.708C78.345 29.924 78.513 30.096 78.729 30.224C78.945 30.352 79.197 30.416 79.485 30.416ZM87.9202 32V28.676C87.9202 28.332 87.8122 28.052 87.5962 27.836C87.3802 27.62 87.1002 27.512 86.7562 27.512C86.5322 27.512 86.3322 27.56 86.1562 27.656C85.9802 27.752 85.8402 27.888 85.7362 28.064C85.6402 28.24 85.5922 28.444 85.5922 28.676L84.9802 28.364C84.9802 27.908 85.0762 27.512 85.2682 27.176C85.4602 26.832 85.7242 26.564 86.0602 26.372C86.4042 26.18 86.7962 26.084 87.2362 26.084C87.6762 26.084 88.0642 26.18 88.4002 26.372C88.7442 26.564 89.0122 26.828 89.2042 27.164C89.3962 27.5 89.4922 27.888 89.4922 28.328V32H87.9202ZM84.0202 32V23.324H85.5922V32H84.0202ZM94.9703 28.472V27.2H96.9263C97.3263 27.2 97.6343 27.1 97.8503 26.9C98.0743 26.692 98.1863 26.408 98.1863 26.048C98.1863 25.72 98.0743 25.448 97.8503 25.232C97.6343 25.008 97.3263 24.896 96.9263 24.896H94.9703V23.564H97.0703C97.6143 23.564 98.0903 23.672 98.4983 23.888C98.9143 24.096 99.2343 24.384 99.4583 24.752C99.6903 25.12 99.8063 25.544 99.8063 26.024C99.8063 26.52 99.6903 26.952 99.4583 27.32C99.2343 27.68 98.9143 27.964 98.4983 28.172C98.0823 28.372 97.5983 28.472 97.0463 28.472H94.9703ZM93.7703 32V23.564H95.4023V32H93.7703ZM98.3783 32L95.5943 28.352L97.0943 27.884L100.358 32H98.3783ZM101.528 32V26.204H103.112V32H101.528ZM102.32 25.268C102.064 25.268 101.852 25.184 101.684 25.016C101.516 24.84 101.432 24.624 101.432 24.368C101.432 24.12 101.516 23.908 101.684 23.732C101.852 23.556 102.064 23.468 102.32 23.468C102.584 23.468 102.796 23.556 102.956 23.732C103.124 23.908 103.208 24.12 103.208 24.368C103.208 24.624 103.124 24.84 102.956 25.016C102.796 25.184 102.584 25.268 102.32 25.268ZM106.747 32.132C106.419 32.132 106.095 32.088 105.775 32C105.463 31.912 105.175 31.792 104.911 31.64C104.647 31.48 104.419 31.288 104.227 31.064L105.163 30.116C105.363 30.34 105.595 30.508 105.859 30.62C106.123 30.732 106.415 30.788 106.735 30.788C106.991 30.788 107.183 30.752 107.311 30.68C107.447 30.608 107.515 30.5 107.515 30.356C107.515 30.196 107.443 30.072 107.299 29.984C107.163 29.896 106.983 29.824 106.759 29.768C106.535 29.704 106.299 29.636 106.051 29.564C105.811 29.484 105.579 29.384 105.355 29.264C105.131 29.136 104.947 28.964 104.803 28.748C104.667 28.524 104.599 28.236 104.599 27.884C104.599 27.516 104.687 27.196 104.863 26.924C105.047 26.652 105.307 26.44 105.643 26.288C105.979 26.136 106.375 26.06 106.831 26.06C107.311 26.06 107.743 26.144 108.127 26.312C108.519 26.48 108.843 26.732 109.099 27.068L108.151 28.016C107.975 27.8 107.775 27.644 107.551 27.548C107.335 27.452 107.099 27.404 106.843 27.404C106.611 27.404 106.431 27.44 106.303 27.512C106.183 27.584 106.123 27.684 106.123 27.812C106.123 27.956 106.191 28.068 106.327 28.148C106.471 28.228 106.655 28.3 106.879 28.364C107.103 28.42 107.335 28.488 107.575 28.568C107.823 28.64 108.055 28.744 108.271 28.88C108.495 29.016 108.675 29.196 108.811 29.42C108.955 29.644 109.027 29.932 109.027 30.284C109.027 30.852 108.823 31.304 108.415 31.64C108.007 31.968 107.451 32.132 106.747 32.132ZM114.033 32L111.789 29.012L114.021 26.204H115.833L113.217 29.372L113.277 28.604L115.953 32H114.033ZM110.337 32V23.324H111.909V32H110.337Z" fill="black"/>
<path d="M365.864 12V3.564H367.496V12H365.864ZM367.064 12V10.548H371.36V12H367.064ZM375.197 12.12C374.613 12.12 374.085 11.988 373.613 11.724C373.149 11.452 372.777 11.088 372.497 10.632C372.225 10.168 372.089 9.652 372.089 9.084C372.089 8.516 372.225 8.008 372.497 7.56C372.769 7.104 373.141 6.744 373.613 6.48C374.085 6.208 374.609 6.072 375.185 6.072C375.777 6.072 376.305 6.208 376.769 6.48C377.241 6.744 377.613 7.104 377.885 7.56C378.157 8.008 378.293 8.516 378.293 9.084C378.293 9.652 378.157 10.168 377.885 10.632C377.613 11.088 377.241 11.452 376.769 11.724C376.305 11.988 375.781 12.12 375.197 12.12ZM375.185 10.656C375.481 10.656 375.741 10.592 375.965 10.464C376.197 10.328 376.373 10.144 376.493 9.912C376.621 9.672 376.685 9.4 376.685 9.096C376.685 8.792 376.621 8.524 376.493 8.292C376.365 8.06 376.189 7.88 375.965 7.752C375.741 7.616 375.481 7.548 375.185 7.548C374.897 7.548 374.641 7.616 374.417 7.752C374.193 7.88 374.017 8.06 373.889 8.292C373.761 8.524 373.697 8.792 373.697 9.096C373.697 9.4 373.761 9.672 373.889 9.912C374.017 10.144 374.193 10.328 374.417 10.464C374.641 10.592 374.897 10.656 375.185 10.656ZM380.974 12L378.802 6.204H380.386L381.802 10.416L381.322 10.428L382.774 6.204H383.914L385.366 10.428L384.886 10.416L386.302 6.204H387.886L385.726 12H384.586L383.122 7.992H383.566L382.102 12H380.974ZM392.861 8.472V7.2H394.817C395.217 7.2 395.525 7.1 395.741 6.9C395.965 6.692 396.077 6.408 396.077 6.048C396.077 5.72 395.965 5.448 395.741 5.232C395.525 5.008 395.217 4.896 394.817 4.896H392.861V3.564H394.961C395.505 3.564 395.981 3.672 396.389 3.888C396.805 4.096 397.125 4.384 397.349 4.752C397.581 5.12 397.697 5.544 397.697 6.024C397.697 6.52 397.581 6.952 397.349 7.32C397.125 7.68 396.805 7.964 396.389 8.172C395.973 8.372 395.489 8.472 394.937 8.472H392.861ZM391.661 12V3.564H393.293V12H391.661ZM396.269 12L393.485 8.352L394.985 7.884L398.249 12H396.269ZM399.419 12V6.204H401.003V12H399.419ZM400.211 5.268C399.955 5.268 399.743 5.184 399.575 5.016C399.407 4.84 399.323 4.624 399.323 4.368C399.323 4.12 399.407 3.908 399.575 3.732C399.743 3.556 399.955 3.468 400.211 3.468C400.475 3.468 400.687 3.556 400.847 3.732C401.015 3.908 401.099 4.12 401.099 4.368C401.099 4.624 401.015 4.84 400.847 5.016C400.687 5.184 400.475 5.268 400.211 5.268ZM404.637 12.132C404.309 12.132 403.985 12.088 403.665 12C403.353 11.912 403.065 11.792 402.801 11.64C402.537 11.48 402.309 11.288 402.117 11.064L403.053 10.116C403.253 10.34 403.485 10.508 403.749 10.62C404.013 10.732 404.305 10.788 404.625 10.788C404.881 10.788 405.073 10.752 405.201 10.68C405.337 10.608 405.405 10.5 405.405 10.356C405.405 10.196 405.333 10.072 405.189 9.984C405.053 9.896 404.873 9.824 404.649 9.768C404.425 9.704 404.189 9.636 403.941 9.564C403.701 9.484 403.469 9.384 403.245 9.264C403.021 9.136 402.837 8.964 402.693 8.748C402.557 8.524 402.489 8.236 402.489 7.884C402.489 7.516 402.577 7.196 402.753 6.924C402.937 6.652 403.197 6.44 403.533 6.288C403.869 6.136 404.265 6.06 404.721 6.06C405.201 6.06 405.633 6.144 406.017 6.312C406.409 6.48 406.733 6.732 406.989 7.068L406.041 8.016C405.865 7.8 405.665 7.644 405.441 7.548C405.225 7.452 404.989 7.404 404.733 7.404C404.501 7.404 404.321 7.44 404.193 7.512C404.073 7.584 404.013 7.684 404.013 7.812C404.013 7.956 404.081 8.068 404.217 8.148C404.361 8.228 404.545 8.3 404.769 8.364C404.993 8.42 405.225 8.488 405.465 8.568C405.713 8.64 405.945 8.744 406.161 8.88C406.385 9.016 406.565 9.196 406.701 9.42C406.845 9.644 406.917 9.932 406.917 10.284C406.917 10.852 406.713 11.304 406.305 11.64C405.897 11.968 405.341 12.132 404.637 12.132ZM411.923 12L409.679 9.012L411.911 6.204H413.723L411.107 9.372L411.167 8.604L413.843 12H411.923ZM408.227 12V3.324H409.799V12H408.227Z" fill="black"/>
<path d="M391.108 108L388.384 99.672H389.512L391.672 106.464H391.348L393.472 99.672H394.288L396.412 106.464H396.1L398.26 99.672H399.376L396.664 108H395.86L393.724 101.22H394.036L391.912 108H391.108ZM400.831 108V102.3H401.911V108H400.831ZM401.371 101.16C401.171 101.16 401.007 101.096 400.879 100.968C400.751 100.832 400.687 100.664 400.687 100.464C400.687 100.272 400.751 100.112 400.879 99.984C401.007 99.848 401.171 99.78 401.371 99.78C401.571 99.78 401.735 99.848 401.863 99.984C401.991 100.112 402.055 100.272 402.055 100.464C402.055 100.664 401.991 100.832 401.863 100.968C401.735 101.096 401.571 101.16 401.371 101.16ZM406.165 108.12C405.637 108.12 405.165 107.992 404.749 107.736C404.333 107.472 404.001 107.116 403.753 106.668C403.513 106.22 403.393 105.716 403.393 105.156C403.393 104.596 403.513 104.092 403.753 103.644C404.001 103.196 404.333 102.84 404.749 102.576C405.165 102.312 405.637 102.18 406.165 102.18C406.589 102.18 406.973 102.272 407.317 102.456C407.661 102.632 407.937 102.88 408.145 103.2C408.361 103.512 408.481 103.876 408.505 104.292V106.008C408.481 106.416 408.365 106.78 408.157 107.1C407.949 107.42 407.673 107.672 407.329 107.856C406.985 108.032 406.597 108.12 406.165 108.12ZM406.345 107.1C406.705 107.1 407.017 107.016 407.281 106.848C407.553 106.68 407.765 106.452 407.917 106.164C408.069 105.868 408.145 105.532 408.145 105.156C408.145 104.764 408.065 104.424 407.905 104.136C407.753 103.848 407.541 103.62 407.269 103.452C407.005 103.284 406.693 103.2 406.333 103.2C405.973 103.2 405.657 103.284 405.385 103.452C405.113 103.62 404.897 103.852 404.737 104.148C404.585 104.436 404.509 104.768 404.509 105.144C404.509 105.528 404.585 105.868 404.737 106.164C404.897 106.452 405.113 106.68 405.385 106.848C405.665 107.016 405.985 107.1 406.345 107.1ZM409.165 108H408.073V106.464L408.277 105.072L408.073 103.692V99.432H409.165V108ZM413.627 108.12C413.059 108.12 412.547 107.992 412.091 107.736C411.635 107.472 411.275 107.116 411.011 106.668C410.747 106.22 410.615 105.712 410.615 105.144C410.615 104.584 410.743 104.08 410.999 103.632C411.263 103.184 411.615 102.832 412.055 102.576C412.503 102.312 413.003 102.18 413.555 102.18C414.083 102.18 414.547 102.3 414.947 102.54C415.355 102.78 415.671 103.112 415.895 103.536C416.127 103.96 416.243 104.44 416.243 104.976C416.243 105.056 416.239 105.144 416.231 105.24C416.223 105.328 416.207 105.432 416.183 105.552H411.371V104.652H415.607L415.211 105C415.211 104.616 415.143 104.292 415.007 104.028C414.871 103.756 414.679 103.548 414.431 103.404C414.183 103.252 413.883 103.176 413.531 103.176C413.163 103.176 412.839 103.256 412.559 103.416C412.279 103.576 412.063 103.8 411.911 104.088C411.759 104.376 411.683 104.716 411.683 105.108C411.683 105.508 411.763 105.86 411.923 106.164C412.083 106.46 412.311 106.692 412.607 106.86C412.903 107.02 413.243 107.1 413.627 107.1C413.947 107.1 414.239 107.044 414.503 106.932C414.775 106.82 415.007 106.652 415.199 106.428L415.895 107.136C415.623 107.456 415.287 107.7 414.887 107.868C414.495 108.036 414.075 108.12 413.627 108.12Z" fill="black"/>
<path d="M418 92L1 70.0568L418 45" stroke="black"/>
</svg>
